<?xml version="1.0" encoding="utf-8" standalone="no"?><!DOCTYPE svg PUBLIC "-//W3C//DTD SVG 20010904//EN" "http://www.w3.org/TR/2001/REC-SVG-20010904/DTD/svg10.dtd"><svg xmlns="http://www.w3.org/2000/svg" width="663" height="718" xmlns:xlink="http://www.w3.org/1999/xlink"><source><![CDATA[Title: An API was placed in front of common calls
CLI->build_config: settings
build_config-> CLI: immutable config
CLI->API.sort_file: file1.py, config
API.sort_file->parse: file.py, config
parse->API.sort_file : parsed
API.sort_file->output: parsed, config
CLI->API.sort_file: file2.py, config
API.sort_file->parse: file2.py, config
parse->API.sort_file : parsed
API.sort_file->output: parsed, config]]></source><desc>An API was placed in front of common calls</desc><defs><marker viewBox="0 0 5 5" markerWidth="5" markerHeight="5" orient="auto" refX="5" refY="2.5" id="markerArrowBlock"><path d="M 0 0 L 5 2.5 L 0 5 z"></path></marker><marker viewBox="0 0 9.6 16" markerWidth="4" markerHeight="16" orient="auto" refX="9.6" refY="8" id="markerArrowOpen"><path d="M 9.6,8 1.92,16 0,13.7 5.76,8 0,2.286 1.92,0 9.6,8 z"></path></marker></defs><g class="title"><path d="M10,10C339.5,25.7 82.1,-5.7 402.2,10.0C400.6,26.1 403.8,16.4 402.2,50.0C104.1,65.7 206.7,34.3 10.0,50.0C11.6,43.3 8.4,16.4 10.0,10.0" style="stroke-width: 2px;" stroke="#000000" fill="#ffffff"></path><text x="15" y="32" style="font-size: 16px; font-family: danielbd;"><tspan x="15">An API was placed in front of common calls</tspan></text></g><g class="actor"><path d="M10,60C52.2,62.2 56.6,57.8 65.5,60.0C67.6,103.7 63.4,99.5 65.5,112.0C24.3,114.2 52.2,109.8 10.0,112.0C12.1,78.7 7.9,83.2 10.0,60.0" style="stroke-width: 2px;" stroke="#000000" fill="#ffffff"></path><text x="20" y="93" style="font-size: 16px; font-family: danielbd;"><tspan x="20">CLI</tspan></text></g><g class="actor"><path d="M10,646C29.4,643.8 30.6,648.2 65.5,646.0C67.6,665.1 63.4,660.8 65.5,698.0C29.5,695.8 19.2,700.2 10.0,698.0C7.9,685.5 12.1,658.5 10.0,646.0" style="stroke-width: 2px;" stroke="#000000" fill="#ffffff"></path><text x="20" y="679" style="font-size: 16px; font-family: danielbd;"><tspan x="20">CLI</tspan></text></g><path d="M37.7,112.0C16.4,404.6 59.1,560.6 37.7,646.0" style="stroke-width: 2px;" stroke="#000000" fill="none"></path><g class="actor"><path d="M136.27499198913574,60C157.3,54.7 206.0,65.3 267.6,60.0C269.7,99.5 265.6,87.7 267.6,112.0C195.2,117.3 167.8,106.7 136.3,112.0C134.2,94.1 138.4,74.0 136.3,60.0" style="stroke-width: 2px;" stroke="#000000" fill="#ffffff"></path><text x="146.27499198913574" y="87" style="font-size: 16px; font-family: danielbd;"><tspan x="146.27499198913574">build_config</tspan></text></g><g class="actor"><path d="M136.27499198913574,646C233.8,640.7 236.1,651.3 267.6,646.0C269.7,676.1 265.6,687.5 267.6,698.0C183.6,692.7 234.1,703.3 136.3,698.0C138.4,659.1 134.2,671.3 136.3,646.0" style="stroke-width: 2px;" stroke="#000000" fill="#ffffff"></path><text x="146.27499198913574" y="673" style="font-size: 16px; font-family: danielbd;"><tspan x="146.27499198913574">build_config</tspan></text></g><path d="M202.0,112.0C223.3,443.8 180.6,354.5 202.0,646.0" style="stroke-width: 2px;" stroke="#000000" fill="none"></path><g class="actor"><path d="M287.6416606903076,60C310.5,54.6 379.4,65.4 423.6,60.0C421.6,83.4 425.7,75.1 423.6,112.0C354.8,106.6 333.1,117.4 287.6,112.0C285.6,69.6 289.7,85.2 287.6,60.0" style="stroke-width: 2px;" stroke="#000000" fill="#ffffff"></path><text x="297.6416606903076" y="92" style="font-size: 16px; font-family: danielbd;"><tspan x="297.6416606903076">API.sort_file</tspan></text></g><g class="actor"><path d="M287.6416606903076,646C320.3,640.6 309.4,651.4 423.6,646.0C421.6,664.7 425.7,685.5 423.6,698.0C363.3,692.6 320.3,703.4 287.6,698.0C289.7,685.5 285.6,670.0 287.6,646.0" style="stroke-width: 2px;" stroke="#000000" fill="#ffffff"></path><text x="297.6416606903076" y="678" style="font-size: 16px; font-family: danielbd;"><tspan x="297.6416606903076">API.sort_file</tspan></text></g><path d="M355.6,112.0C334.3,272.4 377.0,240.2 355.6,646.0" style="stroke-width: 2px;" stroke="#000000" fill="none"></path><g class="actor"><path d="M466.29165840148926,60C522.2,57.3 504.3,62.7 532.9,60.0C535.0,94.4 530.8,99.6 532.9,112.0C508.3,114.7 496.7,109.3 466.3,112.0C464.2,90.6 468.4,93.6 466.3,60.0" style="stroke-width: 2px;" stroke="#000000" fill="#ffffff"></path><text x="476.29165840148926" y="86" style="font-size: 16px; font-family: danielbd;"><tspan x="476.29165840148926">parse</tspan></text></g><g class="actor"><path d="M466.29165840148926,646C513.8,648.7 511.2,643.3 532.9,646.0C530.8,654.3 535.0,669.8 532.9,698.0C516.9,700.7 484.6,695.3 466.3,698.0C468.4,658.5 464.2,654.3 466.3,646.0" style="stroke-width: 2px;" stroke="#000000" fill="#ffffff"></path><text x="476.29165840148926" y="672" style="font-size: 16px; font-family: danielbd;"><tspan x="476.29165840148926">parse</tspan></text></g><path d="M499.6,112.0C478.2,263.1 521.0,439.9 499.6,646.0" style="stroke-width: 2px;" stroke="#000000" fill="none"></path><g class="actor"><path d="M552.8916568756104,60C614.5,63.2 593.6,56.8 633.9,60.0C631.9,84.7 636.0,103.7 633.9,112.0C566.8,115.2 610.8,108.8 552.9,112.0C550.8,99.5 555.0,103.7 552.9,60.0" style="stroke-width: 2px;" stroke="#000000" fill="#ffffff"></path><text x="562.8916568756104" y="87" style="font-size: 16px; font-family: danielbd;"><tspan x="562.8916568756104">output</tspan></text></g><g class="actor"><path d="M552.8916568756104,646C565.9,642.8 579.7,649.2 633.9,646.0C631.9,679.7 636.0,672.3 633.9,698.0C565.9,694.8 612.2,701.2 552.9,698.0C555.0,662.6 550.8,689.7 552.9,646.0" style="stroke-width: 2px;" stroke="#000000" fill="#ffffff"></path><text x="562.8916568756104" y="673" style="font-size: 16px; font-family: danielbd;"><tspan x="562.8916568756104">output</tspan></text></g><path d="M593.4,112.0C614.8,228.6 572.1,447.3 593.4,646.0" style="stroke-width: 2px;" stroke="#000000" fill="none"></path><g class="signal"><text x="88.44999694824219" y="137" style="font-size: 16px; font-family: danielbd;"><tspan x="88.44999694824219">settings</tspan></text><path d="M37.7,162.0C77.2,155.4 160.7,168.6 202.0,162.0" style="stroke-width: 2px; marker-end: url(&quot;#markerArrowBlock&quot;);" stroke="#000000" fill="none"></path></g><g class="signal"><text x="47.74166679382324" y="188" style="font-size: 16px; font-family: danielbd;"><tspan x="47.74166679382324">immutable config</tspan></text><path d="M202.0,214.0C175.7,220.6 162.5,207.4 37.7,214.0" style="stroke-width: 2px; marker-end: url(&quot;#markerArrowBlock&quot;);" stroke="#000000" fill="none"></path></g><g class="signal"><text x="138.5333309173584" y="240" style="font-size: 16px; font-family: danielbd;"><tspan x="138.5333309173584">file1.py, config</tspan></text><path d="M37.7,266.0C178.9,278.7 304.8,253.3 355.6,266.0" style="stroke-width: 2px; marker-end: url(&quot;#markerArrowBlock&quot;);" stroke="#000000" fill="none"></path></g><g class="signal"><text x="371.54165840148926" y="292" style="font-size: 16px; font-family: danielbd;"><tspan x="371.54165840148926">file.py, config</tspan></text><path d="M355.6,318.0C458.7,312.2 464.4,323.8 499.6,318.0" style="stroke-width: 2px; marker-end: url(&quot;#markerArrowBlock&quot;);" stroke="#000000" fill="none"></path></g><g class="signal"><text x="398.31665992736816" y="345" style="font-size: 16px; font-family: danielbd;"><tspan x="398.31665992736816">parsed</tspan></text><path d="M499.6,368.0C459.0,362.2 443.7,373.8 355.6,368.0" style="stroke-width: 2px; marker-end: url(&quot;#markerArrowBlock&quot;);" stroke="#000000" fill="none"></path></g><g class="signal"><text x="414.4874906539917" y="394" style="font-size: 16px; font-family: danielbd;"><tspan x="414.4874906539917">parsed, config</tspan></text><path d="M355.6,420.0C412.7,410.5 485.4,429.5 593.4,420.0" style="stroke-width: 2px; marker-end: url(&quot;#markerArrowBlock&quot;);" stroke="#000000" fill="none"></path></g><g class="signal"><text x="134.71666526794434" y="446" style="font-size: 16px; font-family: danielbd;"><tspan x="134.71666526794434">file2.py, config</tspan></text><path d="M37.7,472.0C121.3,459.3 92.3,484.7 355.6,472.0" style="stroke-width: 2px; marker-end: url(&quot;#markerArrowBlock&quot;);" stroke="#000000" fill="none"></path></g><g class="signal"><text x="365.6416606903076" y="498" style="font-size: 16px; font-family: danielbd;"><tspan x="365.6416606903076">file2.py, config</tspan></text><path d="M355.6,524.0C422.9,518.2 437.4,529.8 499.6,524.0" style="stroke-width: 2px; marker-end: url(&quot;#markerArrowBlock&quot;);" stroke="#000000" fill="none"></path></g><g class="signal"><text x="398.31665992736816" y="551" style="font-size: 16px; font-family: danielbd;"><tspan x="398.31665992736816">parsed</tspan></text><path d="M499.6,574.0C443.9,579.8 452.4,568.2 355.6,574.0" style="stroke-width: 2px; marker-end: url(&quot;#markerArrowBlock&quot;);" stroke="#000000" fill="none"></path></g><g class="signal"><text x="414.4874906539917" y="600" style="font-size: 16px; font-family: danielbd;"><tspan x="414.4874906539917">parsed, config</tspan></text><path d="M355.6,626.0C555.4,635.5 536.4,616.5 593.4,626.0" style="stroke-width: 2px; marker-end: url(&quot;#markerArrowBlock&quot;);" stroke="#000000" fill="none"></path></g></svg>