<?xml version="1.0" encoding="utf-8" standalone="no"?><!DOCTYPE svg PUBLIC "-//W3C//DTD SVG 20010904//EN" "http://www.w3.org/TR/2001/REC-SVG-20010904/DTD/svg10.dtd"><svg xmlns="http://www.w3.org/2000/svg" width="469" height="300" xmlns:xlink="http://www.w3.org/1999/xlink"><source><![CDATA[Title: Original isort design was simple but limited
CLI->SortImports: file.py
SortImports->SortImports: parse and output file]]></source><desc>Original isort design was simple but limited</desc><defs><marker viewBox="0 0 5 5" markerWidth="5" markerHeight="5" orient="auto" refX="5" refY="2.5" id="markerArrowBlock"><path d="M 0 0 L 5 2.5 L 0 5 z"></path></marker><marker viewBox="0 0 9.6 16" markerWidth="4" markerHeight="16" orient="auto" refX="9.6" refY="8" id="markerArrowOpen"><path d="M 9.6,8 1.92,16 0,13.7 5.76,8 0,2.286 1.92,0 9.6,8 z"></path></marker></defs><g class="title"><path d="M10,10C176.6,-5.3 190.2,25.3 391.8,10.0C393.4,21.2 390.1,39.4 391.8,52.0C141.5,36.7 143.7,67.3 10.0,52.0C11.7,25.1 8.3,41.9 10.0,10.0" style="stroke-width: 2px;" stroke="#000000" fill="#ffffff"></path><text x="15" y="32" style="font-size: 16px; font-family: danielbd;"><tspan x="15">Original isort design was simple but limited</tspan></text></g><g class="actor"><path d="M10,62C22.1,59.8 54.4,64.2 65.5,62.0C63.6,102.3 67.4,73.2 65.5,110.0C52.2,112.2 41.6,107.8 10.0,110.0C8.1,73.8 11.9,98.5 10.0,62.0" style="stroke-width: 2px;" stroke="#000000" fill="#ffffff"></path><text x="20" y="93" style="font-size: 16px; font-family: danielbd;"><tspan x="20">CLI</tspan></text></g><g class="actor"><path d="M10,232C38.6,229.8 52.2,234.2 65.5,232.0C63.6,247.9 67.4,267.5 65.5,280.0C51.6,282.2 52.2,277.8 10.0,280.0C8.1,260.9 11.9,243.5 10.0,232.0" style="stroke-width: 2px;" stroke="#000000" fill="#ffffff"></path><text x="20" y="263" style="font-size: 16px; font-family: danielbd;"><tspan x="20">CLI</tspan></text></g><path d="M37.7,110.0C32.9,143.8 42.6,139.3 37.7,232.0" style="stroke-width: 2px;" stroke="#000000" fill="none"></path><g class="actor"><path d="M85.48333358764648,62C105.9,56.9 143.4,67.1 213.4,62.0C211.4,90.1 215.3,96.9 213.4,110.0C136.8,115.1 162.9,104.9 85.5,110.0C83.6,86.2 87.4,91.8 85.5,62.0" style="stroke-width: 2px;" stroke="#000000" fill="#ffffff"></path><text x="96.48333358764648" y="87" style="font-size: 16px; font-family: danielbd;"><tspan x="95.48333358764648">SortImports</tspan></text></g><g class="actor"><path d="M85.48333358764648,232C173.2,237.1 116.2,226.9 213.4,232.0C211.4,254.1 215.3,260.6 213.4,280.0C192.9,274.9 169.3,285.1 85.5,280.0C87.4,272.3 83.6,242.1 85.5,232.0" style="stroke-width: 2px;" stroke="#000000" fill="#ffffff"></path><text x="96.48333358764648" y="257" style="font-size: 16px; font-family: danielbd;"><tspan x="95.48333358764648">SortImports</tspan></text></g><path d="M149.4,110.0C154.3,189.6 144.5,144.2 149.4,232.0" style="stroke-width: 2px;" stroke="#000000" fill="none"></path><g class="signal"><text x="68.15833377838135" y="136" style="font-size: 16px; font-family: danielbd;"><tspan x="68.15833377838135">file.py</tspan></text><path d="M37.7,162.0C86.8,157.5 64.5,166.5 149.4,162.0" style="stroke-width: 2px; marker-end: url(&quot;#markerArrowBlock&quot;);" stroke="#000000" fill="none"></path></g><g class="signal"><text x="174.42499923706055" y="202" style="font-size: 16px; font-family: danielbd;"><tspan x="174.42499923706055">parse and output file</tspan></text><path d="M149.4,182.0C166.2,182.8 161.2,181.2 169.4,182.0" style="stroke-width: 2px;" stroke="#000000" fill="none"></path><path d="M169.4,182.0C168.0,194.1 170.8,204.6 169.4,217.0" style="stroke-width: 2px;" stroke="#000000" fill="none"></path><path d="M169.4,217.0C164.6,216.2 165.5,217.8 149.4,217.0" style="stroke-width: 2px; marker-end: url(&quot;#markerArrowBlock&quot;);" stroke="#000000" fill="none"></path></g></svg>