<?xml version="1.0" encoding="utf-8" standalone="no"?><!DOCTYPE svg PUBLIC "-//W3C//DTD SVG 20010904//EN" "http://www.w3.org/TR/2001/REC-SVG-20010904/DTD/svg10.dtd"><svg xmlns="http://www.w3.org/2000/svg" width="526" height="350" xmlns:xlink="http://www.w3.org/1999/xlink"><source><![CDATA[Title: Initial refactor simply separated parsing from outputting
CLI->parse: file.py
parse->CLI : parsed
CLI->output: parsed]]></source><desc>Initial refactor simply separated parsing from outputting</desc><defs><marker viewBox="0 0 5 5" markerWidth="5" markerHeight="5" orient="auto" refX="5" refY="2.5" id="markerArrowBlock"><path d="M 0 0 L 5 2.5 L 0 5 z"></path></marker><marker viewBox="0 0 9.6 16" markerWidth="4" markerHeight="16" orient="auto" refX="9.6" refY="8" id="markerArrowOpen"><path d="M 9.6,8 1.92,16 0,13.7 5.76,8 0,2.286 1.92,0 9.6,8 z"></path></marker></defs><g class="title"><path d="M10,10C419.6,30.2 232.7,-10.2 516.2,10.0C517.9,34.8 514.5,41.5 516.2,52.0C91.0,72.2 131.5,31.8 10.0,52.0C11.7,37.2 8.3,28.5 10.0,10.0" style="stroke-width: 2px;" stroke="#000000" fill="#ffffff"></path><text x="15" y="32" style="font-size: 16px; font-family: danielbd;"><tspan x="15">Initial refactor simply separated parsing from outputting</tspan></text></g><g class="actor"><path d="M10,62C44.9,59.8 32.4,64.2 65.5,62.0C63.6,92.3 67.4,69.7 65.5,110.0C49.4,112.2 27.1,107.8 10.0,110.0C8.1,98.5 11.9,98.1 10.0,62.0" style="stroke-width: 2px;" stroke="#000000" fill="#ffffff"></path><text x="20" y="93" style="font-size: 16px; font-family: danielbd;"><tspan x="20">CLI</tspan></text></g><g class="actor"><path d="M10,282C49.6,279.8 42.6,284.2 65.5,282.0C63.6,299.1 67.4,305.5 65.5,330.0C34.6,327.8 23.3,332.2 10.0,330.0C11.9,322.3 8.1,297.9 10.0,282.0" style="stroke-width: 2px;" stroke="#000000" fill="#ffffff"></path><text x="20" y="313" style="font-size: 16px; font-family: danielbd;"><tspan x="20">CLI</tspan></text></g><path d="M37.7,110.0C30.9,254.5 44.6,148.9 37.7,282.0" style="stroke-width: 2px;" stroke="#000000" fill="none"></path><g class="actor"><path d="M85.48333358764648,62C141.4,59.3 115.1,64.7 152.1,62.0C154.0,70.6 150.2,83.7 152.1,110.0C103.4,107.3 120.3,112.7 85.5,110.0C83.6,73.5 87.4,69.7 85.5,62.0" style="stroke-width: 2px;" stroke="#000000" fill="#ffffff"></path><text x="95.48333358764648" y="86" style="font-size: 16px; font-family: danielbd;"><tspan x="95.48333358764648">parse</tspan></text></g><g class="actor"><path d="M85.48333358764648,282C96.1,279.3 114.9,284.7 152.1,282.0C150.2,315.6 154.0,322.3 152.1,330.0C96.1,327.3 101.5,332.7 85.5,330.0C87.4,289.7 83.6,322.3 85.5,282.0" style="stroke-width: 2px;" stroke="#000000" fill="#ffffff"></path><text x="95.48333358764648" y="306" style="font-size: 16px; font-family: danielbd;"><tspan x="95.48333358764648">parse</tspan></text></g><path d="M118.8,110.0C111.9,240.7 125.7,254.5 118.8,282.0" style="stroke-width: 2px;" stroke="#000000" fill="none"></path><g class="actor"><path d="M172.08333206176758,62C219.4,65.2 197.0,58.8 253.1,62.0C255.1,82.1 251.2,84.7 253.1,110.0C210.7,106.8 202.4,113.2 172.1,110.0C170.2,69.7 174.0,93.6 172.1,62.0" style="stroke-width: 2px;" stroke="#000000" fill="#ffffff"></path><text x="182.08333206176758" y="87" style="font-size: 16px; font-family: danielbd;"><tspan x="182.08333206176758">output</tspan></text></g><g class="actor"><path d="M172.08333206176758,282C240.2,285.2 185.1,278.8 253.1,282.0C251.2,305.1 255.1,293.5 253.1,330.0C205.3,326.8 233.7,333.2 172.1,330.0C170.2,304.4 174.0,318.5 172.1,282.0" style="stroke-width: 2px;" stroke="#000000" fill="#ffffff"></path><text x="182.08333206176758" y="307" style="font-size: 16px; font-family: danielbd;"><tspan x="182.08333206176758">output</tspan></text></g><path d="M212.6,110.0C219.5,196.2 205.7,254.5 212.6,282.0" style="stroke-width: 2px;" stroke="#000000" fill="none"></path><g class="signal"><text x="52.83750057220459" y="136" style="font-size: 16px; font-family: danielbd;"><tspan x="52.83750057220459">file.py</tspan></text><path d="M37.7,162.0C57.2,165.2 99.3,158.8 118.8,162.0" style="stroke-width: 2px; marker-end: url(&quot;#markerArrowBlock&quot;);" stroke="#000000" fill="none"></path></g><g class="signal"><text x="48.96250057220459" y="189" style="font-size: 16px; font-family: danielbd;"><tspan x="48.96250057220459">parsed</tspan></text><path d="M118.8,212.0C55.1,215.2 57.2,208.8 37.7,212.0" style="stroke-width: 2px; marker-end: url(&quot;#markerArrowBlock&quot;);" stroke="#000000" fill="none"></path></g><g class="signal"><text x="95.875" y="239" style="font-size: 16px; font-family: danielbd;"><tspan x="95.875">parsed</tspan></text><path d="M37.7,262.0C79.7,255.0 101.9,269.0 212.6,262.0" style="stroke-width: 2px; marker-end: url(&quot;#markerArrowBlock&quot;);" stroke="#000000" fill="none"></path></g></svg>