<?xml version="1.0" encoding="utf-8" standalone="no"?><!DOCTYPE svg PUBLIC "-//W3C//DTD SVG 20010904//EN" "http://www.w3.org/TR/2001/REC-SVG-20010904/DTD/svg10.dtd"><svg xmlns="http://www.w3.org/2000/svg" width="497" height="616" xmlns:xlink="http://www.w3.org/1999/xlink"><source><![CDATA[Title: Configuration was then made separate and immutable
CLI->build_config: settings
build_config-> CLI: immutable config
CLI->parse: file.py, config
parse->CLI : parsed
CLI->output: parsed, config
CLI->parse: file2.py, config
parse->CLI : parsed
CLI->output: parsed, config]]></source><desc>Configuration was then made separate and immutable</desc><defs><marker viewBox="0 0 5 5" markerWidth="5" markerHeight="5" orient="auto" refX="5" refY="2.5" id="markerArrowBlock"><path d="M 0 0 L 5 2.5 L 0 5 z"></path></marker><marker viewBox="0 0 9.6 16" markerWidth="4" markerHeight="16" orient="auto" refX="9.6" refY="8" id="markerArrowOpen"><path d="M 9.6,8 1.92,16 0,13.7 5.76,8 0,2.286 1.92,0 9.6,8 z"></path></marker></defs><g class="title"><path d="M10,10C359.2,29.1 86.3,-9.1 487.1,10.0C488.8,39.8 485.4,42.9 487.1,52.0C283.3,71.1 124.5,32.9 10.0,52.0C11.7,16.7 8.3,26.7 10.0,10.0" style="stroke-width: 2px;" stroke="#000000" fill="#ffffff"></path><text x="15" y="32" style="font-size: 16px; font-family: danielbd;"><tspan x="15">Configuration was then made separate and immutable</tspan></text></g><g class="actor"><path d="M10,62C29.7,59.8 51.3,64.2 65.5,62.0C63.4,75.8 67.6,105.7 65.5,114.0C29.5,116.2 23.3,111.8 10.0,114.0C7.9,75.4 12.1,105.7 10.0,62.0" style="stroke-width: 2px;" stroke="#000000" fill="#ffffff"></path><text x="20" y="95" style="font-size: 16px; font-family: danielbd;"><tspan x="20">CLI</tspan></text></g><g class="actor"><path d="M10,544C52.2,546.2 47.5,541.8 65.5,544.0C67.6,557.6 63.4,556.5 65.5,596.0C44.5,598.2 46.9,593.8 10.0,596.0C7.9,583.5 12.1,580.2 10.0,544.0" style="stroke-width: 2px;" stroke="#000000" fill="#ffffff"></path><text x="20" y="577" style="font-size: 16px; font-family: danielbd;"><tspan x="20">CLI</tspan></text></g><path d="M37.7,114.0C54.9,375.5 20.5,251.9 37.7,544.0" style="stroke-width: 2px;" stroke="#000000" fill="none"></path><g class="actor"><path d="M136.27499198913574,62C236.1,56.7 167.8,67.3 267.6,62.0C269.7,98.8 265.6,70.3 267.6,114.0C195.6,108.7 206.3,119.3 136.3,114.0C138.4,79.9 134.2,97.1 136.3,62.0" style="stroke-width: 2px;" stroke="#000000" fill="#ffffff"></path><text x="146.27499198913574" y="89" style="font-size: 16px; font-family: danielbd;"><tspan x="146.27499198913574">build_config</tspan></text></g><g class="actor"><path d="M136.27499198913574,544C209.3,538.7 193.7,549.3 267.6,544.0C265.6,560.7 269.7,587.7 267.6,596.0C214.2,590.7 169.0,601.3 136.3,596.0C134.2,556.5 138.4,552.3 136.3,544.0" style="stroke-width: 2px;" stroke="#000000" fill="#ffffff"></path><text x="146.27499198913574" y="571" style="font-size: 16px; font-family: danielbd;"><tspan x="146.27499198913574">build_config</tspan></text></g><path d="M202.0,114.0C184.8,217.2 219.2,415.8 202.0,544.0" style="stroke-width: 2px;" stroke="#000000" fill="none"></path><g class="actor"><path d="M287.6416606903076,62C343.6,59.3 331.6,64.7 354.2,62.0C352.2,101.2 356.3,74.5 354.2,114.0C309.6,116.7 303.6,111.3 287.6,114.0C285.6,86.5 289.7,105.7 287.6,62.0" style="stroke-width: 2px;" stroke="#000000" fill="#ffffff"></path><text x="297.6416606903076" y="88" style="font-size: 16px; font-family: danielbd;"><tspan x="297.6416606903076">parse</tspan></text></g><g class="actor"><path d="M287.6416606903076,544C318.3,546.7 343.6,541.3 354.2,544.0C352.2,553.2 356.3,563.0 354.2,596.0C321.5,598.7 343.6,593.3 287.6,596.0C285.6,558.4 289.7,583.5 287.6,544.0" style="stroke-width: 2px;" stroke="#000000" fill="#ffffff"></path><text x="297.6416606903076" y="570" style="font-size: 16px; font-family: danielbd;"><tspan x="297.6416606903076">parse</tspan></text></g><path d="M320.9,114.0C338.1,397.2 303.7,217.2 320.9,544.0" style="stroke-width: 2px;" stroke="#000000" fill="none"></path><g class="actor"><path d="M374.2416591644287,62C393.0,65.2 426.3,58.8 455.3,62.0C453.2,80.1 457.4,70.3 455.3,114.0C414.2,110.8 393.7,117.2 374.2,114.0C372.2,74.5 376.3,101.5 374.2,62.0" style="stroke-width: 2px;" stroke="#000000" fill="#ffffff"></path><text x="384.2416591644287" y="89" style="font-size: 16px; font-family: danielbd;"><tspan x="384.2416591644287">output</tspan></text></g><g class="actor"><path d="M374.2416591644287,544C442.3,547.2 435.8,540.8 455.3,544.0C457.4,556.5 453.2,565.2 455.3,596.0C402.1,599.2 395.8,592.8 374.2,596.0C376.3,583.5 372.2,562.3 374.2,544.0" style="stroke-width: 2px;" stroke="#000000" fill="#ffffff"></path><text x="384.2416591644287" y="571" style="font-size: 16px; font-family: danielbd;"><tspan x="384.2416591644287">output</tspan></text></g><path d="M414.8,114.0C397.6,285.0 432.0,388.4 414.8,544.0" style="stroke-width: 2px;" stroke="#000000" fill="none"></path><g class="signal"><text x="88.44999694824219" y="139" style="font-size: 16px; font-family: danielbd;"><tspan x="88.44999694824219">settings</tspan></text><path d="M37.7,164.0C124.3,157.4 107.3,170.6 202.0,164.0" style="stroke-width: 2px; marker-end: url(&quot;#markerArrowBlock&quot;);" stroke="#000000" fill="none"></path></g><g class="signal"><text x="47.74166679382324" y="190" style="font-size: 16px; font-family: danielbd;"><tspan x="47.74166679382324">immutable config</tspan></text><path d="M202.0,216.0C77.2,209.4 67.2,222.6 37.7,216.0" style="stroke-width: 2px; marker-end: url(&quot;#markerArrowBlock&quot;);" stroke="#000000" fill="none"></path></g><g class="signal"><text x="123.26666259765625" y="242" style="font-size: 16px; font-family: danielbd;"><tspan x="123.26666259765625">file.py, config</tspan></text><path d="M37.7,268.0C105.7,279.3 253.0,256.7 320.9,268.0" style="stroke-width: 2px; marker-end: url(&quot;#markerArrowBlock&quot;);" stroke="#000000" fill="none"></path></g><g class="signal"><text x="150.04166412353516" y="295" style="font-size: 16px; font-family: danielbd;"><tspan x="150.04166412353516">parsed</tspan></text><path d="M320.9,318.0C275.6,329.3 253.0,306.7 37.7,318.0" style="stroke-width: 2px; marker-end: url(&quot;#markerArrowBlock&quot;);" stroke="#000000" fill="none"></path></g><g class="signal"><text x="166.2124948501587" y="344" style="font-size: 16px; font-family: danielbd;"><tspan x="166.2124948501587">parsed, config</tspan></text><path d="M37.7,370.0C172.8,385.1 179.2,354.9 414.8,370.0" style="stroke-width: 2px; marker-end: url(&quot;#markerArrowBlock&quot;);" stroke="#000000" fill="none"></path></g><g class="signal"><text x="117.36666488647461" y="396" style="font-size: 16px; font-family: danielbd;"><tspan x="117.36666488647461">file2.py, config</tspan></text><path d="M37.7,422.0C191.4,433.3 253.0,410.7 320.9,422.0" style="stroke-width: 2px; marker-end: url(&quot;#markerArrowBlock&quot;);" stroke="#000000" fill="none"></path></g><g class="signal"><text x="150.04166412353516" y="449" style="font-size: 16px; font-family: danielbd;"><tspan x="150.04166412353516">parsed</tspan></text><path d="M320.9,472.0C241.1,483.3 232.1,460.7 37.7,472.0" style="stroke-width: 2px; marker-end: url(&quot;#markerArrowBlock&quot;);" stroke="#000000" fill="none"></path></g><g class="signal"><text x="166.2124948501587" y="498" style="font-size: 16px; font-family: danielbd;"><tspan x="166.2124948501587">parsed, config</tspan></text><path d="M37.7,524.0C224.2,508.9 98.1,539.1 414.8,524.0" style="stroke-width: 2px; marker-end: url(&quot;#markerArrowBlock&quot;);" stroke="#000000" fill="none"></path></g></svg>